<?xml version="1.0" encoding="UTF-8"?>
<!DOCTYPE svg PUBLIC "-//W3C//DTD SVG 1.1//EN" "http://www.w3.org/Graphics/SVG/1.1/DTD/svg11.dtd">
<!-- Creator: CorelDRAW -->
<svg xmlns="http://www.w3.org/2000/svg" xml:space="preserve" width="141px" height="269px" shape-rendering="geometricPrecision" text-rendering="geometricPrecision" image-rendering="optimizeQuality" fill-rule="evenodd" clip-rule="evenodd"
viewBox="0 0 10.3724 19.8228"
 xmlns:xlink="http://www.w3.org/1999/xlink">
 <g id="Layer_x0020_1">
  <metadata id="CorelCorpID_0Corel-Layer"/>
  <path fill="#1F1A17" d="M3.22699 19.8228c0,-1.99767 -0.000609737,-3.99535 0,-5.99293 0.00104526,-3.4762 0.366975,-2.76603 -3.22699,-2.76603l2.99599 0.25156 0.231003 8.5074z"/>
  <path fill="#1F1A17" d="M0 11.0639c3.59397,0 3.22804,-0.71017 3.22699,2.76603 -0.000609737,1.99759 0,3.99526 0,5.99293l3.68795 0 0 -8.5284 2.76594 0 0.512963 -3.68037 -3.27891 -0.00766527 0 -2.53546c0,-1.07601 0.53744,-1.61345 1.61345,-1.61345l1.84402 0 0 -3.22699c-0.720971,-0.0600156 -0.818877,-0.230481 -1.61354,-0.230481l-1.84393 0c-1.95125,0 -3.91852,2.40115 -3.91852,4.37948l0 3.2269 -2.99642 0 0 3.45747z"/>
 </g>
</svg>
