<?xml version="1.0" encoding="UTF-8"?>
<!DOCTYPE svg PUBLIC "-//W3C//DTD SVG 1.1//EN" "http://www.w3.org/Graphics/SVG/1.1/DTD/svg11.dtd">
<!-- Creator: CorelDRAW -->
<svg xmlns="http://www.w3.org/2000/svg" xml:space="preserve" width="563px" height="702px" shape-rendering="geometricPrecision" text-rendering="geometricPrecision" image-rendering="optimizeQuality" fill-rule="evenodd" clip-rule="evenodd"
viewBox="0 0 197.369 246.103"
 xmlns:xlink="http://www.w3.org/1999/xlink">
 <g id="Layer_x0020_1">
  <metadata id="CorelCorpID_0Corel-Layer"/>
  <g id="_94418712">
   <path id="_68950320" fill="#52df00" d="M51.8985 172.821l2.28228 -1.6618c1.98613,-1.446 6.48318,-7.08336 5.39174,-8.58279l-2.21642 -3.0436 -1.14114 0.8309c-3.07715,2.24086 -7.17532,2.31459 -11.6554,5.57648l-2.66253 1.93891c-4.58818,3.341 -10.9463,12.3293 -10.957,16.128 3.82935,-2.78845 6.85928,-5.01025 10.4442,-6.443 2.43678,-0.973802 8.45853,-3.24614 10.5142,-4.74309z"/>
   <path id="_68950416" fill="#52df00" d="M90.1713 188.612l-5.6063 -2.90277c-2.37217,2.93052 -2.84022,7.23911 -7.29461,11.6517 -2.7404,2.71389 -7.50544,8.71368 -9.07902,11.7076 -4.31521,8.20918 -5.08647,16.7282 -3.80077,25.6751 2.0263,-2.50306 3.12188,-7.10407 6.99182,-11.3625 3.27265,-3.60112 7.44662,-7.46692 10.7876,-10.7653 7.74071,-7.64089 9.28281,-15.0842 8.00125,-24.0037z"/>
   <path id="_68950512" fill="#52df00" d="M68.5397 174.093l-4.62918 -5.52097 -5.05789 5.00694c-4.70913,4.83753 -16.4362,6.14684 -20.6482,9.21363 -3.41058,2.48317 -5.73719,5.33872 -7.78337,8.20669 -2.23424,3.13141 -3.36337,7.38325 -4.69546,9.0289l0.553795 0.760899c4.89966,-3.56757 18.1162,-6.22761 23.8513,-8.1574 9.56612,-3.21964 15.2938,-12.1661 18.409,-18.5387z"/>
   <path id="_68950608" fill="#52df00" d="M48.186 155.732l4.56498 -3.32402c1.29316,-0.941494 -1.67216,-7.24739 -2.3237,-8.78617 -10.8087,4.57534 -22.3929,-4.06917 -35.9416,5.79601l-3.23206 2.03252 -6.58797 6.86425c2.55856,0.221187 7.47686,-1.14114 10.95,-1.08812 3.36337,0.0509475 7.29627,0.422077 10.6294,0.947707 5.5392,0.874806 15.9304,1.93394 21.941,-2.44217z"/>
   <path id="_68950704" fill="#52df00" d="M78.4045 182.045c-4.9709,-2.43057 -2.98644,-3.06224 -8.6383,3.01916 -2.28228,2.45625 -4.10107,6.25205 -5.10387,8.96552 -1.35736,3.67112 -3.89935,15.7685 -2.60288,19.1264 1.49156,-1.84198 2.73626,-5.03262 4.89883,-7.65 2.01843,-2.44175 4.76753,-4.77581 6.61365,-7.37994 3.82272,-5.39257 5.69163,-10.1038 4.83256,-16.0812z"/>
   <path id="_68950800" fill="#52df00" d="M46.2724 137.915l2.52004 -1.91115 -1.10593 -4.93984c-4.82676,2.04287 -12.0671,-1.10925 -21.0654,5.44269l-2.03169 1.25795 -5.02227 5.04215 0.553795 0.761313c9.02434,-6.57099 20.5281,-1.55866 26.1514,-5.6531z"/>
   <path id="_68950896" fill="#52df00" d="M46.6079 120.79l1.14114 -0.8309c-0.738532,-1.9124 0.427048,-3.41058 -0.0368645,-4.04805 -0.145387,-0.199234 -9.22482,-1.80305 -11.662,-2.9504 -3.91509,-1.8424 -7.43834,-4.35953 -11.1786,-6.02506 -6.92224,-3.08212 -16.8011,-3.10366 -24.8719,1.80387 0.629595,0.509475 8.69339,3.35177 11.3493,4.93735 3.84716,2.2972 7.07135,5.15316 10.9297,7.60526 6.4488,4.09817 16.64,5.10676 24.3293,-0.492079z"/>
   <path id="_68950992" fill="#52df00" d="M105.258 193.345l-3.18401 -1.17469c-2.61282,1.99358 -5.95258,13.8031 -6.19489,16.8777 -0.327638,4.14829 0.600187,14.4082 3.62224,18.7586 4.42664,-12.077 11.674,-20.4846 5.75666,-34.4617z"/>
   <path id="_68951088" fill="#52df00" d="M48.3658 109.614l1.69121 -6.47075c-10.2902,-5.03138 -27.1559,-9.9153 -39.2333,-1.12167 4.84167,1.54624 11.4607,-0.182251 18.747,2.87709 8.55546,3.59159 9.34866,5.08605 18.7951,4.71534z"/>
   <path id="_68951184" fill="#52df00" d="M119.167 194.86c-0.892203,-1.22564 -6.02258,-0.987057 -7.33437,-0.480481 3.17283,7.49426 -3.58497,18.0938 -6.16424,24.9668 -2.60785,6.95123 -2.6998,18.8166 3.08212,26.7578 0.932795,-1.38055 1.93849,-9.21653 3.64958,-12.5621 2.18246,-4.26799 5.1283,-7.62639 7.39402,-11.9731 2.10749,-4.04349 2.99016,-8.2767 2.84271,-12.6892 -0.0766284,-2.29388 -2.01843,-12.0261 -3.46982,-14.0197z"/>
   <path id="_93994392" fill="#52df00" d="M52.8193 94.1465c0.946878,-0.689656 1.8105,-4.17894 3.28259,-5.8834 -1.44683,-1.67506 -6.85928,-4.67765 -9.61376,-7.40727 -3.481,-3.44952 -5.88755,-5.61458 -9.90619,-7.68604 -3.89562,-2.00849 -17.9787,-4.01781 -21.8333,-2.52998 1.36688,1.58227 6.77022,5.42239 9.23351,7.68355 2.78058,2.55235 6.1282,6.50927 8.97215,9.34535 3.64296,3.63219 16.6383,8.82718 19.865,6.47779z"/>
   <path id="_93994488" fill="#52df00" d="M142.782 228.892c0.173139,-0.542198 -0.5277,-12.7874 -0.6064,-14.5797 -0.177695,-4.03314 0.291602,-10.634 -2.83649,-14.9301l-0.74723 -1.21404 -5.18754 -6.18039 -3.86 1.13741c2.58755,6.70188 -2.53371,18.1038 4.41048,27.6409l0.55421 0.760899c2.2011,3.0233 5.83991,6.05447 8.27297,7.36502z"/>
   <path id="_93994584" fill="#52df00" d="M59.7656 82.103l2.97277 -3.91095c-7.04567,-9.6763 -21.6125,-14.3158 -29.9671,-10.7789 1.65683,1.34079 8.78617,3.05602 13.4489,6.58052 4.59149,3.47023 8.39889,8.31107 13.5454,8.10936z"/>
   <path id="_93994680" fill="#52df00" d="M157.873 240.024c0.0625453,-0.195092 -0.842912,-20.041 -0.917884,-22.3759 -0.225329,-7.01792 0.455214,-15.8306 -5.02641,-23.3588l-2.21601 -3.0436c-3.16247,-4.34297 -5.03096,-3.98509 -9.20286,-1.44848 2.91561,6.88744 4.338,13.347 3.7958,19.7975 -0.431604,5.1341 -0.910842,14.5428 3.07798,20.0211l0.8309 1.14114c2.86466,3.93456 6.79922,5.95672 9.65849,9.26707z"/>
   <path id="_93994776" fill="#52df00" d="M179.373 210.398c-5.66139,-7.7755 -5.87802,-14.4683 -10.8067,-21.2372 -3.39236,-4.65859 -9.07073,-6.01388 -12.1139,-8.64327l-3.04318 2.2156c0.853268,0.736875 1.24262,0.679715 1.86435,1.57067l7.07011 12.2987 1.93932 2.66294c3.93373,5.40251 10.4616,10.0686 15.09,11.1327z"/>
   <path id="_93994872" fill="#52df00" d="M68.2005 71.3042l6.18909 -5.08895 -3.04691 -4.18474c-2.83981,-3.90018 -2.41607,-8.91457 -6.47779,-14.4927l-1.93932 -2.66335c-4.32805,-5.94429 -13.7542,-11.5696 -18.7582,-11.3729 7.05975,9.69577 5.72186,18.2504 11.6753,26.4269l3.04691 4.18474c2.13317,2.92969 6.84975,5.98778 9.31097,7.19106z"/>
   <path id="_93994968" fill="#52df00" d="M80.0957 62.0603l4.4109 -2.63974 -2.06193 -3.72704 -4.43202 -6.08719c-3.44331,-4.72859 -12.5062,-11.9847 -16.0331,-12.1545l8.56126 14.6841c2.75324,4.6909 7.1223,7.1078 9.55494,9.92441z"/>
   <path id="_93995064" fill="#52df00" d="M197.367 215.924c-4.02154,-6.61365 -5.89334,-21.6829 -10.431,-27.9147l-4.98582 -6.84768c-2.26861,-3.11567 -13.7206,-10.9661 -15.2971,-9.81796 -2.07725,1.51227 -1.55369,2.29554 -3.63011,3.8074l-1.14156 0.831315c2.04453,2.68034 4.43368,2.892 6.78431,6.11992l2.49312 3.42425c3.75189,5.15274 3.36295,11.8132 8.21042,18.4703l0.55421 0.761313c3.55183,4.87854 13.5893,11.1542 17.4435,11.1658z"/>
   <path id="_93995160" fill="#52df00" d="M93.5624 55.7457l4.62256 -1.61707c-6.6414,-9.56115 2.31998,-24.7924 -6.35353,-36.7042 -2.17583,-2.98851 -5.17345,-5.15191 -7.61562,-7.26147 -0.246453,0.672673 -0.965518,15.7825 -1.46629,18.9686 -0.871493,5.5392 -1.01481,13.9691 4.93197,20.4474l5.88092 6.16672z"/>
   <path id="_93995256" fill="#52df00" d="M108.943 52.1164c1.83908,-5.0173 -0.887233,-18.8054 -5.75831,-25.4953l-3.32402 -4.56498c-1.05913,-1.4547 0.0161541,-0.223672 -1.21156,-0.864451 -0.212074,0.664389 0.382314,12.1247 0.345449,14.2015 -0.0753858,4.21083 0.495806,10.1361 3.85834,14.7541l1.38511 1.90246c0.9096,1.24925 3.31076,0.26675 4.70498,0.0666874z"/>
   <path id="_94097808" fill="#52df00" d="M136.406 55.3385c1.02061,-2.76773 3.97101,-13.6055 4.47178,-16.7224 0.610956,-3.79953 -0.0484623,-14.0135 -2.4082,-17.8946 -0.108522,0.133789 -6.22554,14.8295 -6.6472,16.1326 -2.47613,7.66491 -0.379414,9.66263 0.706224,17.3284l3.8774 1.15605z"/>
   <path id="_94097904" fill="#52df00" d="M125.411 52.35c-0.979601,-2.53744 0.434918,-10.2653 1.28114,-12.9349 1.58227,-4.98664 4.67185,-8.29782 6.17004,-12.502 1.28321,-3.60029 1.67298,-9.21239 1.26913,-12.9374 -0.556281,-5.14114 -2.53951,-9.50316 -3.18236,-13.9741 -0.996998,1.23227 -3.11111,8.74806 -5.35943,12.2933 -2.7114,4.27545 -5.10511,7.97184 -7.16828,12.345 -3.11028,6.59336 -4.53474,19.0767 1.07321,26.7793 0.822616,1.12954 4.70208,1.39961 5.91654,0.930724z"/>
  </g>
 </g>
</svg>
