<?xml version="1.0" encoding="UTF-8"?>
<!DOCTYPE svg PUBLIC "-//W3C//DTD SVG 1.1//EN" "http://www.w3.org/Graphics/SVG/1.1/DTD/svg11.dtd">
<!-- Creator: CorelDRAW -->
<svg xmlns="http://www.w3.org/2000/svg" xml:space="preserve" width="126px" height="126px" shape-rendering="geometricPrecision" text-rendering="geometricPrecision" image-rendering="optimizeQuality" fill-rule="evenodd" clip-rule="evenodd"
viewBox="0 0 16.2894 16.1952"
 xmlns:xlink="http://www.w3.org/1999/xlink">
 <g id="Layer_x0020_1">
  <metadata id="CorelCorpID_0Corel-Layer"/>
  <path fill="#52df00" stroke="#52df00" stroke-width="0.116005" d="M4.12259 0.0580025l-4.06109 6.31725 2.10575 9.74975 12.7849 -3.13168 1.27849 -6.39245 -1.05287 -6.46766 -11.0552 -0.0752053zm0.451232 2.06891l5.11762 -0.00745964 0.0814471 0 0.05511 0.0587637 3.11996 3.3305 0.0506951 0.128488 -0.0126357 5.04515 -0.000456713 0.187861 -0.186795 -0.00060895 -8.14973 -0.0203998 -0.185578 -0.000456713 -0.00167461 -0.185273 -0.0752053 -8.34779 -0.00167461 -0.18847 0.188927 -0.000304475zm4.97421 0.367349l-0.046128 3.01643 2.92783 -0.00669845 -2.81974 -3.00989 -0.0619607 0.000152238zm3.0755 3.38378l-3.31178 0.00761188 -0.190145 0.000456713 0.00289251 -0.18984 0.0488682 -3.20156 -4.41063 0.00639398 0.0718561 7.97405 7.77736 0.0194864 0.0115701 -4.6166zm-6.85769 -1.44382l2.40657 0 0 0.376027 -2.40657 0 0 -0.376027zm0 1.50243l2.40657 0 0 0.376027 -2.40657 0 0 -0.376027zm0.000761188 1.30498l5.51237 0.0386683 -0.00152238 0.374504 -5.51237 -0.0386683 0.00152238 -0.374504zm-0.000761188 1.42799l5.62792 0 0 0.376027 -5.62792 0 0 -0.376027z"/>
 </g>
</svg>
