<?xml version="1.0" encoding="UTF-8"?>
<!DOCTYPE svg PUBLIC "-//W3C//DTD SVG 1.1//EN" "http://www.w3.org/Graphics/SVG/1.1/DTD/svg11.dtd">
<!-- Creator: CorelDRAW -->
<svg xmlns="http://www.w3.org/2000/svg" xml:space="preserve" width="263px" height="263px" shape-rendering="geometricPrecision" text-rendering="geometricPrecision" image-rendering="optimizeQuality" fill-rule="evenodd" clip-rule="evenodd"
viewBox="0 0 134.94 134.94"
 xmlns:xlink="http://www.w3.org/1999/xlink">
 <g id="Layer_x0020_1">
  <metadata id="CorelCorpID_0Corel-Layer"/>
  <path fill="#52df00" d="M94.7791 30.5222c0,3.24903 3.78203,9.63842 6.42581,9.63842 4.93243,0 9.63842,-1.48732 9.63842,-6.42581l0 -3.2126c0,-3.76079 -2.66503,-6.42581 -6.42521,-6.42581l-3.21321 0c-3.98297,0 -6.42581,4.42552 -6.42581,6.42581z"/>
  <path fill="#52df00" d="M69.0764 89.9596l-3.2126 0c-9.85089,0 -20.8837,-11.0329 -20.8837,-20.8837l0 -3.2126c0,-10.7348 11.4238,-20.8837 22.49,-20.8837 12.006,0 22.49,10.4841 22.49,22.49 0,11.0662 -10.149,22.49 -20.8837,22.49zm-1.6063 12.8516c16.7448,0 33.7348,-14.6947 33.7348,-32.1285l0 -6.42581c0,-14.6589 -13.9632,-30.5222 -27.3089,-30.5222l-12.8516 0c-35.6197,0 -40.0804,69.0764 6.42581,69.0764z"/>
  <path fill="#52df00" d="M12.8516 35.3411c0,-10.0318 12.4582,-22.49 22.49,-22.49l64.2569 0c13.6293,0 22.49,14.2363 22.49,28.9159l0 51.4053c0,16.9093 -9.08416,28.9159 -25.7026,28.9159l-61.0443 0c-10.0148,0 -22.49,-10.753 -22.49,-20.8837l0 -65.8632zm-12.8516 59.438c0,27.8037 18.3152,40.1606 46.5864,40.1606l41.7675 0c27.8432,0 46.5858,-12.8322 46.5858,-40.1606l0 -51.4059c0,-29.1308 -16.9056,-43.3732 -46.5858,-43.3732l-35.3417 0c-35.9773,0 -53.0122,10.4719 -53.0122,46.5864l0 48.1927z"/>
 </g>
</svg>
