<?xml version="1.0" encoding="UTF-8"?>
<!DOCTYPE svg PUBLIC "-//W3C//DTD SVG 1.1//EN" "http://www.w3.org/Graphics/SVG/1.1/DTD/svg11.dtd">
<!-- Creator: CorelDRAW -->
<svg xmlns="http://www.w3.org/2000/svg" xml:space="preserve" width="521px" height="518px" shape-rendering="geometricPrecision" text-rendering="geometricPrecision" image-rendering="optimizeQuality" fill-rule="evenodd" clip-rule="evenodd"
viewBox="0 0 998.395 992.088"
 xmlns:xlink="http://www.w3.org/1999/xlink">
 <g id="Layer_x0020_1">
  <metadata id="CorelCorpID_0Corel-Layer"/>
  <path fill="#52df00" d="M250.761 0l-250.761 390.07 130.022 602.018 789.428 -193.371 78.9444 -394.715 -65.0124 -399.358 -682.622 -4.64326zm19.2069 110.788l6.97507 -0.0113195 0.0633892 0 321.041 1.71151 7.15166 0.0384863 4.77909 5.19112 194.51 211.294 4.27198 11.0388 -0.0113195 4.78362 6.90489 7.88516 -6.92527 0.0067917 -0.738031 297.94 -0.0181112 6.93885 -0.0430141 16.3182 -16.2254 -0.0498058 -6.8981 -0.022639 -503.219 -1.26099 -6.85508 -0.0158473 -16.1212 -0.0362224 -0.144889 -16.1054 -0.0611253 -6.8415 -4.64326 -515.444 -0.0611253 -6.96375 -0.142626 -16.3635 16.411 -0.0316946zm16.4133 32.573l4.47346 496.717 484.624 1.21345 0.713128 -288.545 -177.091 0.129042 -16.1008 0.0135834 -0.167528 -16.1529 -1.95374 -191.804 -294.497 -1.57115zm327.305 28.1131l1.51681 148.856 128.739 -0.0950837 -130.256 -148.761zm-258.474 343.243l338.172 0 16.334 0 0 16.334 0 13.889 0 16.334 -16.334 0 -338.172 0 -16.334 0 0 -16.334 0 -13.889 0 -16.334 16.334 0zm0.0724447 -88.0951l331.077 2.32955 16.2706 0.117723 -0.067917 16.214 -0.0543336 13.8256 -0.0633892 16.3204 -16.2684 -0.115459 -331.077 -2.32502 -16.2684 -0.115459 0.0633892 -16.2163 0.0565975 -13.8324 0.0656531 -16.3159 16.2661 0.113195zm-0.0724447 -80.6536l139.264 0 16.334 0 0 16.334 0 13.8845 0 16.334 -16.334 0 -139.264 0 -16.334 0 0 -16.334 0 -13.8845 0 -16.334 16.334 0zm0 -92.7678l139.264 0 16.334 0 0 16.334 0 13.8845 0 16.334 -16.334 0 -139.264 0 -16.334 0 0 -16.334 0 -13.8845 0 -16.334 16.334 0z"/>
 </g>
</svg>
