<?xml version="1.0" encoding="UTF-8"?>
<!DOCTYPE svg PUBLIC "-//W3C//DTD SVG 1.1//EN" "http://www.w3.org/Graphics/SVG/1.1/DTD/svg11.dtd">
<!-- Creator: CorelDRAW -->
<svg xmlns="http://www.w3.org/2000/svg" xml:space="preserve" width="2565px" height="500px" shape-rendering="geometricPrecision" text-rendering="geometricPrecision" image-rendering="optimizeQuality" fill-rule="evenodd" clip-rule="evenodd"
viewBox="0 0 2834.58 552.453"
 xmlns:xlink="http://www.w3.org/1999/xlink">
 <g id="Layer_x0020_1">
  <metadata id="CorelCorpID_0Corel-Layer"/>
  <g id="_95658680">
   <g>
    <path id="_94686288" fill="#52df00" d="M2233.64 363.887l-3.45342 0 0 6.90814 -3.45342 0 0 3.45342 -3.45472 0 0 3.45342 -3.45342 0 0 3.45342 -6.90684 0 0 3.45342 -24.1765 0 0 -3.45342 -6.90684 0 0 -3.45342 -3.45342 0 0 -6.90684 -3.45342 0 0 -13.815 3.45342 0 0 -6.90814 3.45342 0 0 -3.45342 3.45342 0 0 -3.45342 6.90814 0 0 -3.45342 6.90684 0 0 -3.45342 37.9902 0 0 20.7218 -3.45342 0 0 6.90684zm-48.3518 -145.054l-20.7218 0 0 3.45342 -10.3616 0 0 3.45342 -13.8137 0 0 3.45342 -3.45472 0 0 24.1765 3.45472 0 0 20.7218 6.90684 0 0 -3.45342 6.90684 0 0 -3.45342 10.3616 0 0 -3.45472 13.815 0 0 -3.45342 41.4436 0 0 3.45342 6.90814 0 0 3.45472 6.90684 0 0 6.90684 3.45342 0 0 24.1752 -24.1752 0 0 3.45472 -24.1765 0 0 3.45342 -6.90684 0 0 3.45342 -10.3616 0 0 3.45342 -6.90684 0 0 3.45342 -6.90684 0 0 3.45472 -6.90814 0 0 3.45342 -3.45342 0 0 3.45342 -3.45342 0 0 3.45342 -3.45342 0 0 3.45342 -3.45472 0 0 3.45472 -3.45342 0 0 3.45342 -3.45342 0 0 6.90684 -3.45342 0 0 6.90814 -3.45342 0 0 37.9902 3.45342 0 0 6.90684 3.45342 0 0 6.90814 3.45342 0 0 3.45342 3.45342 0 0 3.45342 3.45472 0 0 3.45342 3.45342 0 0 3.45342 6.90684 0 0 3.45472 6.90814 0 0 3.45342 44.8971 0 0 -3.45342 10.3616 0 0 -3.45472 6.90684 0 0 -3.45342 6.90814 0 0 -3.45342 3.45342 0 0 -3.45342 3.45342 0 0 -3.45342 3.45342 0 0 -3.45472 3.45342 0 0 -6.90684 3.45472 0 0 27.63 51.8052 0 0 -145.055 -3.45472 0 0 -20.7218 -3.45342 0 0 -6.90684 -3.45342 0 0 -6.90814 -3.45342 0 0 -3.45342 -3.45342 0 0 -3.45342 -3.45472 0 0 -3.45342 -3.45342 0 0 -3.45472 -6.90684 0 0 -3.45342 -6.90814 0 0 -3.45342 -6.90684 0 0 -3.45342 -13.815 0 0 -3.45342 -51.8052 0 0 3.45342z"/>
    <polygon id="_94418832" fill="#52df00" points="2444.32,218.833 2433.96,218.833 2433.96,222.286 2427.05,222.286 2427.05,225.74 2423.6,225.74 2423.6,229.193 2416.69,229.193 2416.69,236.101 2413.23,236.101 2413.23,239.554 2409.78,239.554 2409.78,243.008 2406.33,243.008 2406.33,249.916 2402.87,249.916 2402.87,256.823 2399.42,256.823 2399.42,222.286 2347.61,222.286 2347.61,422.6 2406.33,422.6 2406.33,308.628 2409.78,308.628 2409.78,298.267 2413.23,298.267 2413.23,291.36 2416.69,291.36 2416.69,284.453 2420.14,284.453 2420.14,280.998 2423.6,280.998 2423.6,277.545 2427.05,277.545 2427.05,274.091 2437.41,274.091 2437.41,270.638 2461.59,270.638 2461.59,246.461 2465.04,246.461 2465.04,215.379 2444.32,215.379 "/>
    <polygon id="_94419840" fill="#52df00" points="862.531,149.759 848.716,149.759 848.716,153.213 838.355,153.213 838.355,156.666 831.448,156.666 831.448,160.119 821.086,160.119 821.086,163.574 814.179,163.574 814.179,167.027 810.726,167.027 810.726,170.481 803.818,170.481 803.818,173.934 796.911,173.934 796.911,177.388 793.458,177.388 793.458,180.842 790.004,180.842 790.004,184.296 786.549,184.296 786.549,187.749 783.096,187.749 783.096,191.203 779.643,191.203 779.643,194.656 776.189,194.656 776.189,198.111 772.736,198.111 772.736,205.018 769.281,205.018 769.281,208.471 765.828,208.471 765.828,215.379 762.374,215.379 762.374,222.286 758.921,222.286 758.921,229.193 755.467,229.193 755.467,236.101 752.013,236.101 752.013,246.461 748.559,246.461 748.559,260.276 745.106,260.276 745.106,322.443 748.559,322.443 748.559,336.258 752.013,336.258 752.013,346.618 755.467,346.618 755.467,353.526 758.921,353.526 758.921,363.887 762.374,363.887 762.374,367.34 765.828,367.34 765.828,374.248 769.281,374.248 769.281,377.702 772.736,377.702 772.736,384.609 776.189,384.609 776.189,388.063 779.643,388.063 779.643,391.517 783.096,391.517 783.096,394.97 786.549,394.97 786.549,398.424 793.458,398.424 793.458,401.877 796.911,401.877 796.911,405.332 800.364,405.332 800.364,408.785 807.273,408.785 807.273,412.238 814.179,412.238 814.179,415.692 824.541,415.692 824.541,419.145 834.901,419.145 834.901,422.6 848.716,422.6 848.716,426.053 924.698,426.053 924.698,422.6 941.966,422.6 941.966,419.145 959.235,419.145 959.235,415.692 969.595,415.692 969.595,412.238 979.957,412.238 979.957,277.545 921.243,277.545 921.243,374.248 859.078,374.248 859.078,370.795 852.17,370.795 852.17,367.34 845.263,367.34 845.263,363.887 838.355,363.887 838.355,360.433 834.901,360.433 834.901,356.98 831.448,356.98 831.448,353.526 827.994,353.526 827.994,350.072 824.541,350.072 824.541,346.618 821.086,346.618 821.086,339.711 817.633,339.711 817.633,332.803 814.179,332.803 814.179,325.896 810.726,325.896 810.726,308.628 807.273,308.628 807.273,260.276 810.726,260.276 810.726,249.916 814.179,249.916 814.179,243.008 817.633,243.008 817.633,236.101 821.086,236.101 821.086,229.193 824.541,229.193 824.541,225.74 827.994,225.74 827.994,222.286 831.448,222.286 831.448,218.833 834.901,218.833 834.901,215.379 838.355,215.379 838.355,211.925 845.263,211.925 845.263,208.471 848.716,208.471 848.716,205.018 855.623,205.018 855.623,201.564 865.985,201.564 865.985,198.111 879.8,198.111 879.8,194.656 924.698,194.656 924.698,198.111 941.966,198.111 941.966,201.564 955.78,201.564 955.78,205.018 962.688,205.018 962.688,208.471 973.048,208.471 973.048,180.842 976.503,180.842 976.503,167.027 979.957,167.027 979.957,156.666 976.503,156.666 976.503,153.213 962.688,153.213 962.688,149.759 938.512,149.759 938.512,146.306 862.531,146.306 "/>
    <path id="_94418976" fill="#52df00" d="M2043.69 256.823l-3.45342 0 0 6.90684 -3.45342 0 0 3.45472 -3.45472 0 0 3.45342 -3.45342 0 0 3.45342 -6.90684 0 0 3.45342 -6.90814 0 0 3.45342 -34.5368 0 0 -86.342 41.4449 0 0 3.45472 6.90684 0 0 3.45342 3.45342 0 0 3.45342 3.45472 0 0 3.45342 3.45342 0 0 3.45342 3.45342 0 0 13.815 3.45342 0 0 24.1765 -3.45342 0 0 6.90684zm-100.157 -107.064l-20.7218 0 0 272.841 58.712 0 0 -93.2501 37.9915 0 0 -3.45342 13.8137 0 0 -3.45342 13.815 0 0 -3.45342 6.90814 0 0 -3.45472 6.90684 0 0 -3.45342 6.90684 0 0 -3.45342 3.45472 0 0 -3.45342 3.45342 0 0 -3.45342 3.45342 0 0 -3.45472 3.45342 0 0 -3.45342 3.45342 0 0 -3.45342 3.45472 0 0 -3.45342 3.45342 0 0 -6.90814 3.45342 0 0 -6.90684 3.45342 0 0 -6.90684 3.45342 0 0 -13.815 3.45472 0 0 -41.4449 -3.45472 0 0 -10.3603 -3.45342 0 0 -10.3616 -3.45342 0 0 -6.90684 -3.45342 0 0 -3.45342 -3.45342 0 0 -3.45472 -3.45472 0 0 -3.45342 -3.45342 0 0 -3.45342 -3.45342 0 0 -3.45342 -3.45342 0 0 -3.45342 -6.90814 0 0 -3.45472 -6.90684 0 0 -3.45342 -10.3616 0 0 -3.45342 -10.3603 0 0 -3.45342 -24.1765 0 0 -3.45342 -72.527 0 0 3.45342z"/>
    <polygon id="_94419912" fill="#52df00" points="1128.46,218.833 1118.1,218.833 1118.1,222.286 1111.2,222.286 1111.2,225.74 1107.74,225.74 1107.74,229.193 1100.84,229.193 1100.84,232.648 1097.38,232.648 1097.38,236.101 1093.93,236.101 1093.93,243.008 1090.47,243.008 1090.47,246.461 1087.02,246.461 1087.02,253.369 1083.57,253.369 1083.57,222.286 1031.76,222.286 1031.76,422.6 1090.47,422.6 1090.47,308.628 1093.93,308.628 1093.93,294.813 1097.38,294.813 1097.38,287.906 1100.84,287.906 1100.84,284.453 1104.29,284.453 1104.29,280.998 1107.74,280.998 1107.74,277.545 1111.2,277.545 1111.2,274.091 1118.1,274.091 1118.1,270.638 1145.73,270.638 1145.73,239.554 1149.19,239.554 1149.19,215.379 1128.46,215.379 "/>
    <polygon id="_94686384" fill="#52df00" points="1708.68,218.833 1691.41,218.833 1691.41,222.286 1681.05,222.286 1681.05,225.74 1677.6,225.74 1677.6,229.193 1670.69,229.193 1670.69,232.648 1667.24,232.648 1667.24,236.101 1663.79,236.101 1663.79,239.554 1660.33,239.554 1660.33,243.008 1656.88,243.008 1656.88,246.461 1653.42,246.461 1653.42,253.369 1649.97,253.369 1649.97,222.286 1598.17,222.286 1598.17,422.6 1656.88,422.6 1656.88,301.721 1660.33,301.721 1660.33,294.813 1663.79,294.813 1663.79,287.906 1667.24,287.906 1667.24,280.998 1670.69,280.998 1670.69,277.545 1674.15,277.545 1674.15,274.091 1677.6,274.091 1677.6,270.638 1684.51,270.638 1684.51,267.184 1691.41,267.184 1691.41,263.73 1712.14,263.73 1712.14,267.184 1715.59,267.184 1715.59,270.638 1719.04,270.638 1719.04,280.998 1722.5,280.998 1722.5,422.6 1777.76,422.6 1777.76,256.823 1774.3,256.823 1774.3,246.461 1770.85,246.461 1770.85,239.554 1767.4,239.554 1767.4,236.101 1763.94,236.101 1763.94,232.648 1760.49,232.648 1760.49,229.193 1757.03,229.193 1757.03,225.74 1753.58,225.74 1753.58,222.286 1743.22,222.286 1743.22,218.833 1729.41,218.833 1729.41,215.379 1708.68,215.379 "/>
    <path id="_94420152" fill="#52df00" d="M1221.71 284.453l3.45342 0 0 -6.90814 3.45342 0 0 -6.90684 3.45342 0 0 -3.45342 3.45472 0 0 -3.45472 6.90684 0 0 -3.45342 6.90814 0 0 -3.45342 20.7218 0 0 3.45342 6.90684 0 0 3.45342 3.45342 0 0 3.45472 3.45472 0 0 3.45342 3.45342 0 0 6.90684 3.45342 0 0 17.2684 -69.0736 0 0 -10.3603zm20.7218 -65.6202l-13.815 0 0 3.45342 -10.3603 0 0 3.45342 -6.90814 0 0 3.45342 -3.45342 0 0 3.45472 -3.45342 0 0 3.45342 -6.90814 0 0 3.45342 -3.45342 0 0 3.45342 -3.45342 0 0 3.45342 -3.45342 0 0 3.45472 -3.45342 0 0 6.90684 -3.45472 0 0 6.90684 -3.45342 0 0 6.90814 -3.45342 0 0 6.90684 -3.45342 0 0 13.815 -3.45342 0 0 10.3616 -3.45472 0 0 37.9902 3.45472 0 0 24.1752 3.45342 0 0 10.3616 3.45342 0 0 6.90684 3.45342 0 0 6.90814 3.45342 0 0 3.45342 3.45472 0 0 6.90684 3.45342 0 0 3.45342 3.45342 0 0 3.45472 3.45342 0 0 3.45342 6.90814 0 0 3.45342 3.45342 0 0 3.45342 6.90684 0 0 3.45342 6.90814 0 0 3.45472 10.3603 0 0 3.45342 75.9817 0 0 -3.45342 17.2684 0 0 -3.45472 10.3603 0 0 -3.45342 6.90814 0 0 -17.2684 -3.45342 0 0 -24.1752 -10.3616 0 0 3.45342 -13.815 0 0 3.45342 -17.2684 0 0 3.45342 -34.5368 0 0 -3.45342 -13.815 0 0 -3.45342 -6.90684 0 0 -3.45342 -3.45342 0 0 -3.45342 -3.45472 0 0 -3.45472 -3.45342 0 0 -6.90684 -3.45342 0 0 -6.90684 -3.45342 0 0 -20.7231 124.332 0 0 -51.8052 -3.45342 0 0 -10.3603 -3.45342 0 0 -10.3616 -3.45342 0 0 -6.90684 -3.45472 0 0 -3.45342 -3.45342 0 0 -6.90814 -3.45342 0 0 -3.45342 -3.45342 0 0 -3.45342 -3.45342 0 0 -3.45342 -6.90814 0 0 -3.45472 -3.45342 0 0 -3.45342 -6.90684 0 0 -3.45342 -6.90814 0 0 -3.45342 -17.2684 0 0 -3.45342 -34.5368 0 0 3.45342z"/>
    <path id="_94685280" fill="#52df00" d="M1432.39 284.453l3.45342 0 0 -6.90814 3.45472 0 0 -3.45342 3.45342 0 0 -6.90684 3.45342 0 0 -3.45472 6.90684 0 0 -3.45342 6.90814 0 0 -3.45342 20.7218 0 0 3.45342 6.90684 0 0 3.45342 3.45472 0 0 3.45472 3.45342 0 0 3.45342 3.45342 0 0 6.90684 3.45342 0 0 17.2684 -69.0736 0 0 -10.3603zm17.2684 -65.6202l-10.3603 0 0 3.45342 -6.90814 0 0 3.45342 -6.90684 0 0 3.45342 -6.90814 0 0 3.45472 -6.90684 0 0 3.45342 -3.45342 0 0 3.45342 -3.45342 0 0 3.45342 -3.45472 0 0 3.45342 -3.45342 0 0 6.90814 -3.45342 0 0 3.45342 -3.45342 0 0 6.90684 -3.45342 0 0 6.90814 -3.45472 0 0 6.90684 -3.45342 0 0 10.3616 -3.45342 0 0 17.2684 -3.45342 0 0 37.9902 3.45342 0 0 20.7218 3.45342 0 0 10.3616 3.45342 0 0 6.90684 3.45472 0 0 6.90814 3.45342 0 0 3.45342 3.45342 0 0 6.90684 3.45342 0 0 3.45342 3.45342 0 0 3.45472 3.45472 0 0 3.45342 6.90684 0 0 3.45342 3.45342 0 0 3.45342 6.90814 0 0 3.45342 10.3603 0 0 3.45472 6.90814 0 0 3.45342 79.4339 0 0 -3.45342 13.815 0 0 -3.45472 10.3616 0 0 -3.45342 6.90684 0 0 -24.1752 -3.45342 0 0 -17.2684 -10.3616 0 0 3.45342 -10.3603 0 0 3.45342 -24.1765 0 0 3.45342 -31.0834 0 0 -3.45342 -13.8137 0 0 -3.45342 -6.90814 0 0 -3.45342 -3.45342 0 0 -3.45342 -3.45342 0 0 -3.45472 -3.45342 0 0 -6.90684 -3.45472 0 0 -6.90684 -3.45342 0 0 -20.7231 124.332 0 0 -51.8052 -3.45342 0 0 -10.3603 -3.45342 0 0 -10.3616 -3.45342 0 0 -6.90684 -3.45342 0 0 -3.45342 -3.45472 0 0 -6.90814 -3.45342 0 0 -3.45342 -3.45342 0 0 -3.45342 -3.45342 0 0 -3.45342 -6.90814 0 0 -3.45472 -3.45342 0 0 -3.45342 -6.90684 0 0 -3.45342 -6.90814 0 0 -3.45342 -17.2684 0 0 -3.45342 -37.9902 0 0 3.45342z"/>
    <polygon id="_94687128" fill="#52df00" points="2558.29,149.759 2541.02,149.759 2541.02,153.213 2527.21,153.213 2527.21,156.666 2513.39,156.666 2513.39,222.286 2478.85,222.286 2478.85,263.73 2513.39,263.73 2513.39,388.063 2516.85,388.063 2516.85,401.877 2520.3,401.877 2520.3,408.785 2523.75,408.785 2523.75,412.238 2527.21,412.238 2527.21,415.692 2530.66,415.692 2530.66,419.145 2534.11,419.145 2534.11,422.6 2541.02,422.6 2541.02,426.053 2613.55,426.053 2613.55,422.6 2617,422.6 2617,388.063 2613.55,388.063 2613.55,377.702 2610.09,377.702 2610.09,381.155 2582.46,381.155 2582.46,377.702 2575.56,377.702 2575.56,374.248 2572.1,374.248 2572.1,367.34 2568.65,367.34 2568.65,263.73 2617,263.73 2617,222.286 2568.65,222.286 2568.65,146.306 2558.29,146.306 "/>
    <polygon id="_94687176" fill="#52df00" points="2634.27,232.648 2637.72,232.648 2637.72,239.554 2641.18,239.554 2641.18,249.916 2644.63,249.916 2644.63,260.276 2648.08,260.276 2648.08,267.184 2651.54,267.184 2651.54,277.545 2654.99,277.545 2654.99,287.906 2658.45,287.906 2658.45,298.267 2661.9,298.267 2661.9,305.175 2665.35,305.175 2665.35,315.535 2668.81,315.535 2668.81,325.896 2672.26,325.896 2672.26,332.803 2675.71,332.803 2675.71,343.165 2679.17,343.165 2679.17,353.526 2682.62,353.526 2682.62,363.887 2686.07,363.887 2686.07,370.795 2689.53,370.795 2689.53,381.155 2692.98,381.155 2692.98,391.517 2696.44,391.517 2696.44,398.424 2699.89,398.424 2699.89,408.785 2703.34,408.785 2703.34,419.145 2706.8,419.145 2706.8,429.507 2703.34,429.507 2703.34,436.414 2699.89,436.414 2699.89,446.775 2696.44,446.775 2696.44,453.682 2692.98,453.682 2692.98,460.59 2689.53,460.59 2689.53,464.044 2686.07,464.044 2686.07,467.497 2682.62,467.497 2682.62,470.951 2679.17,470.951 2679.17,474.405 2672.26,474.405 2672.26,477.859 2644.63,477.859 2644.63,474.405 2634.27,474.405 2634.27,505.487 2630.82,505.487 2630.82,522.756 2686.07,522.756 2686.07,519.302 2696.44,519.302 2696.44,515.849 2703.34,515.849 2703.34,512.395 2710.25,512.395 2710.25,508.942 2713.7,508.942 2713.7,505.487 2717.16,505.487 2717.16,502.034 2720.61,502.034 2720.61,498.58 2724.07,498.58 2724.07,495.127 2727.52,495.127 2727.52,491.674 2730.97,491.674 2730.97,484.765 2734.43,484.765 2734.43,477.859 2737.88,477.859 2737.88,474.405 2741.33,474.405 2741.33,467.497 2744.79,467.497 2744.79,460.59 2748.24,460.59 2748.24,450.229 2751.69,450.229 2751.69,443.322 2755.15,443.322 2755.15,432.96 2758.6,432.96 2758.6,426.053 2762.06,426.053 2762.06,415.692 2765.51,415.692 2765.51,405.332 2768.96,405.332 2768.96,398.424 2772.42,398.424 2772.42,388.063 2775.87,388.063 2775.87,377.702 2779.32,377.702 2779.32,370.795 2782.78,370.795 2782.78,360.433 2786.23,360.433 2786.23,350.072 2789.69,350.072 2789.69,343.165 2793.14,343.165 2793.14,332.803 2796.59,332.803 2796.59,322.443 2800.05,322.443 2800.05,315.535 2803.5,315.535 2803.5,305.175 2806.95,305.175 2806.95,294.813 2810.41,294.813 2810.41,287.906 2813.86,287.906 2813.86,277.545 2817.31,277.545 2817.31,267.184 2820.77,267.184 2820.77,260.276 2824.22,260.276 2824.22,249.916 2827.68,249.916 2827.68,239.554 2831.13,239.554 2831.13,232.648 2834.58,232.648 2834.58,222.286 2775.87,222.286 2775.87,229.193 2772.42,229.193 2772.42,239.554 2768.96,239.554 2768.96,249.916 2765.51,249.916 2765.51,256.823 2762.06,256.823 2762.06,267.184 2758.6,267.184 2758.6,277.545 2755.15,277.545 2755.15,287.906 2751.69,287.906 2751.69,298.267 2748.24,298.267 2748.24,308.628 2744.79,308.628 2744.79,318.99 2741.33,318.99 2741.33,329.35 2737.88,329.35 2737.88,346.618 2734.43,346.618 2734.43,336.258 2730.97,336.258 2730.97,322.443 2727.52,322.443 2727.52,312.082 2724.07,312.082 2724.07,301.721 2720.61,301.721 2720.61,291.36 2717.16,291.36 2717.16,280.998 2713.7,280.998 2713.7,270.638 2710.25,270.638 2710.25,260.276 2706.8,260.276 2706.8,253.369 2703.34,253.369 2703.34,243.008 2699.89,243.008 2699.89,232.648 2696.44,232.648 2696.44,222.286 2634.27,222.286 "/>
   </g>
   <g>
    <path id="_94289040" fill="#52df00" d="M328.174 101.261l0 7.69123c0,6.69279 5.20362,25.6357 10.2558,25.6357l10.2558 0 0 -3.84627c0,-10.3694 6.40827,-19.5106 6.40827,-34.6073l0 -8.97289c0,-15.4608 -9.59936,-43.8751 -17.9471,-49.9897 0,12.904 0.0339338,23.1376 -2.55809,33.3308 -1.76325,6.92772 -6.4148,23.832 -6.4148,30.7584z"/>
    <path id="_94288968" fill="#52df00" d="M232.03 160.224l15.3812 -7.69123c-2.64945,-9.92303 -11.3874,-17.8622 -13.9612,-34.7469 -1.58184,-10.3864 -7.15482,-30.5 -11.2243,-38.7668 -11.159,-22.6652 -28.6832,-38.0228 -50.4465,-49.5382 2.26312,8.47562 10.6396,18.2655 13.8111,33.6167 2.68338,12.981 4.50406,28.3713 6.40958,41.0169 4.41401,29.2992 18.3321,44.6308 40.0302,56.1096z"/>
    <path id="_94288896" fill="#52df00" d="M298.691 135.87l19.5798 -1.34169 -2.9157 -19.1661c-3.10103,-18.1272 12.8192,-46.0521 12.8192,-60.2456 0,-11.4918 -2.55809,-21.1943 -5.59255,-30.2977 -3.31246,-9.94261 -10.8667,-19.247 -12.3545,-24.8187l-2.56331 0c0,16.5101 -15.3342,49.8801 -20.2794,65.6045 -8.24983,26.2282 2.26704,53.186 11.3065,70.2652z"/>
    <path id="_94268088" fill="#52df00" d="M371.759 120.489l0 15.3812c0,4.35789 18.6414,7.94051 23.075,8.97289 7.25531,-31.1395 44.867,-42.7879 44.867,-88.4433l0.70739 -10.3772 -4.55235 -25.5143c-4.5902,5.28062 -9.47667,18.2955 -15.1619,25.8589 -5.50641,7.32448 -12.6299,15.3903 -19.1321,21.8873 -10.8079,10.7962 -29.803,31.9813 -29.803,52.2346z"/>
    <path id="_94268016" fill="#52df00" d="M265.36 144.843c13.3229,-7.0491 11.5323,-1.66667 7.20311,-23.8646 -1.7502,-8.96375 -7.19266,-19.0565 -11.5597,-25.6148 -5.9084,-8.8763 -28.4718,-33.8712 -37.9471,-36.4005 1.66667,6.2386 6.6954,14.0956 8.99246,23.0541 2.14175,8.36077 2.87263,18.1572 5.64737,26.3979 5.74526,17.0648 13.1233,28.7354 27.6639,36.428z"/>
    <path id="_94267944" fill="#52df00" d="M414.063 144.843l0.168364 8.61397 12.6508 5.48553c3.24068,-13.905 21.792,-24.7965 21.792,-55.1177l0.488125 -6.4905 -3.05143 -19.1452 -2.56461 0c0,30.4086 -29.4833,47.7057 -29.4833,66.6539z"/>
    <path id="_94267872" fill="#52df00" d="M451.239 173.042l0 3.84496c5.39548,1.44088 6.82722,6.40958 8.97419,6.40958 0.670846,0 18.7615,-17.4224 25.1959,-20.9502 10.3355,-5.66695 21.5284,-9.38923 31.193,-14.9557 17.887,-10.3015 33.7746,-32.0231 35.9098,-57.6653 -2.1313,0.569044 -21.3209,13.7706 -29.0721,17.0765 -11.2269,4.78858 -22.6874,7.30882 -34.2732,11.8742 -19.3658,7.62989 -37.9276,28.4561 -37.9276,54.3659z"/>
    <path id="_94267800" fill="#52df00" d="M197.418 185.861l7.69254 -5.12792c-0.200993,-8.9507 -20.8523,-35.2416 -27.2345,-40.7049 -8.61005,-7.37408 -32.6913,-21.7816 -47.1184,-22.1027 19.4976,29.1139 26.3927,58.5541 66.6604,67.9355z"/>
    <path id="_94267728" fill="#52df00" d="M473.032 194.832l11.5375 14.1008c27.5791,-14.5928 65.3787,-43.9038 65.3787,-84.5996 -11.1694,8.18197 -17.9758,25.53 -36.3966,36.6707 -21.6276,13.0815 -26.1904,12.4302 -40.5196,33.8281z"/>
    <path id="_94267656" fill="#52df00" d="M171.78 214.058c4.12948,0 11.8299,-11.6798 12.8192,-15.3799 -21.5924,-5.03004 -34.097,-36.9082 -45.0967,-53.6076 -11.1264,-16.8899 -37.1079,-36.1186 -63.8674,-36.1186 1.54399,4.26783 17.1875,19.0473 21.8116,28.1807 5.89926,11.6484 8.5722,23.5214 14.5106,35.4791 5.52469,11.1251 13.4313,19.8578 23.3856,26.608 5.1736,3.50954 29.7195,14.8382 36.4371,14.8382z"/>
    <path id="_94267584" fill="#52df00" d="M499.952 229.441c0,3.19108 6.29864,10.6892 7.69254,16.6628 6.00759,-0.499871 21.2987,-7.60379 31.7268,-9.29395 13.1781,-2.13392 21.8051,-3.96243 32.8101,-9.49103 10.6696,-5.35763 37.6757,-33.1494 40.5796,-44.0226 -5.67608,0.472463 -22.7957,6.2138 -31.7255,8.0136 -10.0796,2.03081 -24.1609,3.05665 -34.9662,4.77292 -13.8398,2.19787 -46.1174,22.4864 -46.1174,33.3582z"/>
    <path id="_94267512" fill="#52df00" d="M58.9691 211.495c0.916213,1.25164 29.0069,19.3436 33.0789,22.0426 9.16735,6.07676 22.9497,17.6939 37.4277,17.6939l3.87107 0.301489 21.9291 -1.51397 3.68312 -10.3237c-18.9064,-5.04831 -35.8041,-34.6086 -67.942,-34.6086l-2.56331 0c-10.1867,0 -22.6965,3.15193 -29.4846,6.40827z"/>
    <path id="_94267440" fill="#52df00" d="M515.336 264.049l3.84496 12.8178c32.6065,0 66.1801,-24.6399 71.7883,-48.7081 -5.60952,1.497 -20.8184,14.4467 -36.056,19.0643 -15.0053,4.54583 -31.7699,5.16838 -39.5773,16.826z"/>
    <path id="_94267368" fill="#52df00" d="M10.2558 226.878c0.328897,0.450276 45.4857,30.2781 50.7467,33.8568 15.8158,10.757 34.1322,26.3862 59.5003,26.3862l10.2545 0c14.6359,0 16.8442,-4.68809 17.9471,-17.9432 -19.8421,-4.62283 -36.347,-11.8481 -49.683,-23.3856 -10.6135,-9.18301 -30.5652,-25.3238 -49.0252,-25.3238l-3.84496 0c-13.259,0 -24.0212,5.42158 -35.8955,6.40958z"/>
    <path id="_94267296" fill="#52df00" d="M41.0234 321.729c26.1995,0 41.287,10.2545 64.0958,10.2545 15.6983,0 27.7879,-10.3328 38.4575,-12.8178l0 -10.2532c-2.99009,0.696948 -3.48866,1.6471 -6.44743,1.58706l-38.4209 -4.15037 -8.97289 0c-18.2055,0 -38.9482,6.89379 -48.712,15.3799z"/>
    <path id="_94267224" fill="#52df00" d="M525.59 299.94l1.28296 21.7894 14.1008 0c13.1428,0 23.5057,8.97419 42.3024,8.97419l8.9755 0c20.0301,0 47.5321,-11.7385 55.1216,-23.0737 -32.6704,0 -49.3633,-16.6628 -76.9162,-16.6628l-14.1008 0c-9.87213,0 -24.17,5.48292 -30.7662,8.97289z"/>
    <path id="_94115880" fill="#52df00" d="M526.873 340.957l-1.25947 13.9468 11.514 1.43566 20.5117 0c15.9345,0 46.445,-8.32292 52.4747,-15.8184l-46.0652 -4.692c-14.7442,-1.45785 -27.0727,4.28741 -37.1758,5.12792z"/>
    <path id="_94115808" fill="#52df00" d="M0 352.494c21.0129,1.74759 57.1981,21.7894 78.1992,21.7894l23.0737 0c10.4986,0 46.15,-12.6312 46.15,-17.9445 0,-6.9995 -2.56461,-7.1013 -2.56461,-14.0995l0 -3.84496c-9.18171,0.203603 -13.4783,5.12531 -24.3553,5.12531l-11.5388 0c-17.3624,0 -31.4071,-11.5362 -53.8399,-11.5362l-2.56461 0c-16.4383,0 -46.3536,12.0413 -52.5596,20.5104z"/>
    <path id="_94115736" fill="#52df00" d="M519.186 380.739l-3.85018 12.7722c31.7033,0.706084 50.8759,44.8631 91.0157,44.8631 10.0692,0 19.6412,-3.13366 28.2029,-5.12792 -1.08719,-1.6223 -33.2082,-27.4329 -39.422,-33.6441 -10.8001,-10.8014 -29.1348,-24.6346 -52.9368,-21.9265l-23.0097 3.06318z"/>
    <path id="_94115664" fill="#52df00" d="M502.517 420.428c8.09974,12.0948 42.8349,28.199 65.3787,28.199l15.3812 0c4.90213,0 0.467243,0.394154 3.84757,-1.28165 -1.12373,-1.53224 -27.3141,-18.5996 -31.8286,-22.0113 -9.15169,-6.91728 -23.1168,-15.1606 -38.678,-15.1606l-6.40958 0c-4.2091,0 -5.89665,6.86377 -7.69123,10.2545z"/>
    <path id="_94115592" fill="#52df00" d="M369.195 270.458c0,-2.09737 0.768732,-3.84496 2.56461,-3.84496 3.74186,0 6.64842,1.7241 10.2558,2.56461l0 5.12662 -6.43046 2.50719c0.0208824,5.33805 1.59097,10.3094 -3.82539,10.3094l-8.97289 0c-4.41923,0 -4.96478,-0.946232 -8.97289,-1.28035 0.300184,-3.61917 -0.0300184,-5.12792 3.84496,-5.12792l3.84627 0 6.81939 -7.4054 0.870533 0.997132 0 -3.84627zm-32.0479 -30.7623c9.44535,-0.785698 24.9048,-20.5091 28.2029,-20.5091l7.69254 0c4.62936,0 3.84496,3.23415 3.84496,7.69123l3.00836 4.84993c-5.04178,1.50483 -14.0812,8.80061 -14.5459,14.3762l-12.7865 -1.51789c-3.50301,-0.241452 -13.7093,6.78676 -17.9797,7.92746l2.56331 -12.8178zm92.1225 3.66746c4.83557,-13.4848 1.45915,-12.827 1.45915,-28.0215 -7.06868,-3.73925 -14.5459,-5.33153 -15.3838,-15.3825 3.982,-0.416342 4.57715,-1.28035 8.97289,-1.28035 35.0771,0 74.3529,74.5213 74.3529,112.796l0 24.354c0,28.1481 -9.57456,39.5394 -14.1008,58.9626l-2.56461 0c-2.57636,-9.64765 -4.5145,-22.5843 -15.3838,-24.354l-0.249283 1.53877 -31.8312 -5.18274c1.60664,2.14958 5.41505,7.49024 9.00551,7.49024 3.46255,0 3.53564,-0.612114 6.41088,-1.28165l3.75491 1.5218 2.74733 9.98959c-8.67009,12.8335 -20.9776,18.2185 -38.5501,14.1243l0 -8.97158c0,-10.8001 -5.66173,-10.8406 -9.39706,-18.8059 -2.78388,-5.94103 -3.3725,-15.3603 -9.83167,-17.0857l0 6.40958 -4.85123 -3.00706c2.07257,10.5286 8.53827,14.2418 11.2726,23.5031 1.18768,4.02638 2.49675,8.10757 4.0838,12.5803 1.63535,4.60978 4.90605,5.81051 6.15899,10.5051l18.0632 3.28244c-8.75623,12.3545 -29.9296,15.3459 -39.0082,33.4561 -6.55053,13.0684 -1.97599,13.1246 -14.2274,21.6628 -3.72619,2.59724 -12.6103,15.6083 -14.8226,19.7873l-14.0643 1.5727 -25.6748 -0.291048 0 -10.2545c0,-5.59908 2.56331,-4.65415 2.56331,-10.2532 0,-8.84498 -3.33596,-17.2658 -6.40827,-23.0724 0.880974,-3.78884 3.84496,-12.2057 3.84496,-15.3825 0,-11.839 -3.05926,-15.3263 3.84496,-25.6357l-10.3133 -12.7748 -21.7229 -3.94807c-1.04281,-4.36311 -7.70428,-20.4686 -7.70428,-23.0124 0,-0.00522059 6.09373,-11.5793 6.41088,-15.3825 9.85908,-2.29575 18.5762,-16.7685 29.4846,-11.5362 3.74447,-7.07781 6.7463,-13.2733 16.6641,-14.0982 2.6625,6.59621 17.9471,4.00028 17.9471,10.2545 0,2.71079 -0.458107,1.68886 -1.28035,5.12662l8.42081 8.33206c2.90656,-0.207518 1.46046,-0.642132 4.39704,-0.642132 0.826158,0 8.05928,4.77945 12.2592,5.68783 6.24904,1.35344 9.90998,2.17829 14.662,3.28505l2.36623 -6.50094c-3.16107,-1.51789 -7.49415,-1.38215 -7.49415,-6.31691 0,-4.45447 2.27357,-1.8011 3.84496,-7.69123l-3.84496 0 -1.32864 6.39783 -7.64555 0.0104412 -3.59568 -15.7544 -1.53224 0.374577c0.670846,2.87393 1.28296,2.94702 1.28296,6.40827l0 6.40958 -10.1606 2.84261 3.6257 -8.04754 -3.88803 -13.9742 -6.24382 -0.0469853 0 -2.56592 -14.1191 7.66121c-4.13732,-2.16785 -10.2363,-5.2232 -10.2363,-11.5062 0,-3.33987 7.27358,-12.8178 10.2545,-12.8178 3.87629,0 3.54608,1.50875 3.84757,5.12792 1.89246,-0.505092 3.84496,-0.228401 3.84496,-2.56461 0,-3.53825 -5.79224,-8.69228 0.948842,-8.75754 2.42757,-0.0221875 7.19266,2.34926 13.152,2.34926 0.292353,0 12.7774,-8.08669 14.1021,-8.97158l-1.5218 -3.7536c3.99897,-2.08171 19.1778,-14.1922 20.7505,-14.1922 0.512923,0 10.3394,7.27097 15.3825,7.69123 -0.84704,-3.63744 -1.28165,-2.19134 -1.28165,-5.12792 0,-0.0404596 8.99246,-20.2206 10.0783,-23.2499zm-184.421 -51.0939c0,-13.6805 17.7161,-16.8038 27.7996,-20.9124 8.9507,-3.64789 28.2734,-8.56959 40.1424,-8.56959 0.0991912,0 11.886,5.12792 15.3838,5.12792l1.28165 0c4.41923,0 4.96347,-0.948842 8.97419,-1.28165l0 3.84496c7.41584,0.616029 6.06371,5.12662 8.97289,5.12662l7.69123 -0.425478c4.67765,0.425478 3.05404,-0.723051 8.97289,-0.854871 1.52963,-2.8896 3.43776,-7.69123 7.69254,-7.69123l3.84627 0 0 5.12792 8.99899 1.12373c-0.695643,3.03186 -1.30776,3.10364 -1.30776,6.56619l0 1.28165c0,4.41923 0.947537,4.96347 1.28165,8.97158l-7.61292 2.78779c-2.39233,-1.77239 -2.33099,-2.78779 -5.20623,-2.78779l-3.84496 0c-9.59544,0 -4.88125,6.40958 -11.5375,6.40958l-3.84627 0 -5.18404 10.2206 6.75805 6.15246 -5.41897 0.291048 0 5.12662c-12.9275,-1.07544 3.3738,-5.92145 -11.2295,-9.2822 -6.00498,-1.38085 -6.91858,-4.65285 -13.1285,-6.09895l-13.7536 20.7505 7.31665 3.65441 4.43358 -3.23676 10.9776 -0.659099c-0.79875,9.59805 -8.69097,5.26235 -8.97419,17.9445 -7.57116,2.02167 -4.23781,11.5362 -11.5375,11.5362 -5.25974,0 -3.8541,-7.35189 -5.12662,-12.8178l-1.40956 -0.685202 -3.25373 6.69801c-5.69044,-0.144871 -8.00186,-7.28533 -10.7205,-12.4211l-19.307 2.1039c-2.63901,0.917518 -1.8011,0.280607 -3.76665,-0.823548l-12.8922 4.93346 9.61632 -17.4302 -3.07884 -6.75152c-6.67713,0.572959 -18.0032,5.13836 -18.0032,11.5584l0 7.68993 -10.064 -3.12322 -0.190551 6.96818c0,5.77919 -6.40958,4.41401 -6.40958,7.69123 0,3.54086 1.15375,2.67294 1.21509,10.3015 0.053511,6.61318 2.9666,5.08094 9.03945,5.08094 6.42263,4.30046 8.57743,9.61241 10.7688,18.7145 2.64423,10.9906 4.7925,12.348 9.74292,19.739l-1.55965 8.94026c-1.49048,2.67294 -3.56827,3.35945 -3.56827,6.4409l0 2.56461c0,3.82408 4.15428,4.09164 4.96869,10.5117 0.448971,3.54608 -1.12373,6.84419 -1.12373,12.5594 -4.1086,0.0913603 -6.40827,-0.416342 -6.40827,3.84627 0,0.0548162 11.5362,21.5715 11.5362,26.9173 0,4.07989 -7.74605,12.8178 -11.5362,12.8178 -3.18847,0 -4.82121,-3.20414 -7.69254,-5.12662 -4.45708,0 -28.5749,2.71732 -30.7819,3.8293 -4.09816,2.06605 -10.6957,3.45864 -13.071,4.87472 -5.18013,3.08928 -2.89743,6.40827 -8.70533,7.95879 -3.30463,-14.1804 -17.9484,-34.0291 -17.9484,-55.1177 0,-2.85827 10.2558,-14.0799 10.2558,-19.2274 0,-5.72568 -3.84496,-9.52105 -3.84496,-12.8165 0,-1.57923 12.8192,-21.9552 12.8192,-34.6086l17.7239 -15.6252 7.87265 1.72018c2.22789,-1.65884 5.16969,-2.98487 5.16969,-6.60404 0,-20.9802 1.30645,-30.8693 11.5375,-46.1448l0 -7.69123 7.46152 -3.18978 2.79301 -4.50015zm-83.3245 128.18l0 1.28035c0,93.1888 84.2981,170.478 180.751,170.478l6.41088 0c43.0738,0 87.4253,-24.1491 109.303,-45.8028 21.6119,-21.3927 49.6556,-63.5959 49.6556,-105.448l0 -21.7907c0,-87.1903 -83.8948,-166.633 -171.778,-166.633l-8.9755 0c-93.3924,0 -165.367,73.8322 -165.367,167.916z"/>
    <path id="_94115520" fill="#52df00" d="M451.385 475.738c4.45969,6.68627 23.5944,30.5613 29.6555,36.6616 7.38713,7.43803 30.9372,22.3637 43.2682,23.3908 -0.120074,-0.452886 -22.6743,-37.489 -24.8683,-40.5065 -12.9079,-17.7435 -20.6709,-16.3287 -39.2914,-26.2295l-8.76406 6.68366z"/>
    <path id="_94115448" fill="#52df00" d="M475.597 456.319c7.15743,1.91204 21.9082,17.4172 26.4292,23.5618 8.44561,11.4801 10.7831,23.5931 17.6391,33.6349 5.87055,8.59831 17.6051,18.4548 26.454,23.5383 12.2149,7.01777 25.0001,9.64504 35.8772,15.3994 -1.1146,-4.17255 -14.2757,-20.8797 -18.4783,-31.5141 -5.06789,-12.827 -9.36965,-24.0251 -15.6918,-35.5809 -9.53279,-17.4211 -34.7391,-40.5757 -60.6932,-40.5757 -3.80711,0 -10.6226,8.11018 -11.5362,11.5362z"/>
   </g>
  </g>
 </g>
</svg>
