<?xml version="1.0" encoding="UTF-8"?>
<!DOCTYPE svg PUBLIC "-//W3C//DTD SVG 1.1//EN" "http://www.w3.org/Graphics/SVG/1.1/DTD/svg11.dtd">
<!-- Creator: CorelDRAW -->
<svg xmlns="http://www.w3.org/2000/svg" xml:space="preserve" width="538px" height="459px" shape-rendering="geometricPrecision" text-rendering="geometricPrecision" image-rendering="optimizeQuality" fill-rule="evenodd" clip-rule="evenodd"
viewBox="0 0 220.026 187.764"
 xmlns:xlink="http://www.w3.org/1999/xlink">
 <g id="Layer_x0020_1">
  <metadata id="CorelCorpID_0Corel-Layer"/>
  <g id="_207834552">
   <path id="_104122728" fill="#52df00" d="M111.538 34.4163l0 2.61399c0,2.2747 1.7684,8.71267 3.48565,8.71267l3.48565 0 0 -1.307c0,-3.52426 2.17817,-6.63151 2.17817,-11.7625l0 -3.04934c0,-5.25501 -3.26267,-14.9122 -6.09964,-16.9905 0,4.38578 0.0115834,7.86418 -0.869722,11.3286 -0.59896,2.35433 -2.1801,8.09971 -2.1801,10.454z"/>
   <path id="_104123568" fill="#52df00" d="M78.8609 54.4561l5.22799 -2.61399c-0.900611,-3.37271 -3.87031,-6.07116 -4.74534,-11.8098 -0.537664,-3.53005 -2.43155,-10.3662 -3.81481,-13.1757 -3.79261,-7.70346 -9.74842,-12.9232 -17.1454,-16.837 0.769333,2.88089 3.61596,6.20823 4.69418,11.4256 0.911712,4.41184 1.53046,9.64272 2.17817,13.9407 1.50054,9.95789 6.23092,15.1685 13.6052,19.0702z"/>
   <path id="_104122680" fill="#52df00" d="M101.517 46.1788l6.65468 -0.456097 -0.990866 -6.51423c-1.05409,-6.16094 4.35682,-15.6516 4.35682,-20.4756 0,-3.90603 -0.86924,-7.20344 -1.90065,-10.2977 -1.12601,-3.37898 -3.69318,-6.54126 -4.19899,-8.43515l-0.87117 0c0,5.61121 -5.21158,16.9528 -6.89262,22.2971 -2.80367,8.91441 0.770781,18.0769 3.8428,23.8816z"/>
   <path id="_104124048" fill="#52df00" d="M126.352 40.9508l0 5.22799c0,1.48123 6.33565,2.69846 7.84246,3.04934 2.46582,-10.5834 15.2491,-14.5425 15.2491,-30.0595l0.240356 -3.52667 -1.54735 -8.67164c-1.5599,1.79447 -3.22068,6.21789 -5.15318,8.78844 -1.87121,2.48947 -4.29214,5.23088 -6.50216,7.43897 -3.67339,3.66953 -10.1292,10.8696 -10.1292,17.7531z"/>
   <path id="_104123952" fill="#52df00" d="M90.189 49.2281c4.52815,-2.39584 3.91954,-0.56614 2.44796,-8.11081 -0.594616,-3.04644 -2.44459,-6.47658 -3.92871,-8.70591 -2.00828,-3.01652 -9.67699,-11.512 -12.8972,-12.3716 0.56614,2.12025 2.27566,4.79071 3.05609,7.83571 0.727825,2.84132 0.976386,6.17107 1.91947,8.97185 1.95277,5.79992 4.4601,9.76628 9.40236,12.3808z"/>
   <path id="_104122704" fill="#52df00" d="M140.729 49.2281l0.0569519 2.92771 4.29986 1.86445c1.10139,-4.72604 7.40664,-8.42743 7.40664,-18.7328l0.165546 -2.20616 -1.03672 -6.50699 -0.871653 0c0,10.3353 -10.0206,16.2139 -10.0206,22.6538z"/>
   <path id="_104123616" fill="#52df00" d="M153.365 58.8124l0 1.307c1.83356,0.4894 2.32006,2.17817 3.04982,2.17817 0.22829,0 6.37668,-5.92154 8.56353,-7.12043 3.51267,-1.92623 7.31686,-3.19123 10.6017,-5.08319 6.07937,-3.50109 11.4792,-10.8836 12.2046,-19.5987 -0.724447,0.19354 -7.2464,4.68019 -9.88066,5.80378 -3.81577,1.62747 -7.7107,2.48416 -11.6486,4.03586 -6.5818,2.59324 -12.8904,9.6712 -12.8904,18.4775z"/>
   <path id="_104122632" fill="#52df00" d="M67.097 63.1693l2.61448 -1.74282c-0.0680526,-3.0421 -7.08713,-11.9777 -9.25612,-13.8345 -2.92626,-2.50636 -11.1109,-7.40326 -16.0141,-7.51234 6.62669,9.89514 8.96992,19.9013 22.6557,23.0896z"/>
   <path id="_104123304" fill="#52df00" d="M160.771 66.2186l3.92147 4.79216c9.37341,-4.95964 22.2204,-14.9214 22.2204,-28.753 -3.79599,2.78099 -6.10929,8.67695 -12.3701,12.4633 -7.35065,4.44611 -8.90138,4.22506 -13.7717,11.4975z"/>
   <path id="_104122368" fill="#52df00" d="M58.3834 72.7531c1.40353,0 4.0209,-3.96974 4.35682,-5.2275 -7.33858,-1.70952 -11.5887,-12.5439 -15.3273,-18.2198 -3.78151,-5.74055 -12.6119,-12.2755 -21.7069,-12.2755 0.525115,1.45034 5.84191,6.47369 7.41339,9.57756 2.0049,3.95912 2.91323,7.9945 4.93164,12.0588 1.87796,3.78102 4.56532,6.74879 7.94816,9.04328 1.75875,1.19261 10.1012,5.04313 12.3841,5.04313z"/>
   <path id="_104124192" fill="#52df00" d="M169.921 77.9811c0,1.0845 2.141,3.63285 2.61448,5.66333 2.04206,-0.16989 7.23916,-2.58455 10.7832,-3.1589 4.47893,-0.725412 7.41098,-1.34657 11.1515,-3.2255 3.6261,-1.82101 12.805,-11.2668 13.792,-14.9624 -1.92912,0.16072 -7.74786,2.11204 -10.7827,2.72355 -3.4258,0.690179 -8.21168,1.03913 -11.8841,1.62216 -4.70384,0.747131 -15.6743,7.64265 -15.6743,11.3378z"/>
   <path id="_104124096" fill="#52df00" d="M20.0422 71.8819c0.311305,0.425208 9.85846,6.57408 11.2427,7.49158 3.11546,2.06523 7.79999,6.01373 12.7205,6.01373l1.31568 0.10232 7.45297 -0.514497 1.25198 -3.50881c-6.42591,-1.7158 -12.1689,-11.7625 -23.0916,-11.7625l-0.87117 0c-3.46248,0 -7.71408,1.07147 -10.0211,2.17817z"/>
   <path id="_104123160" fill="#52df00" d="M175.149 89.7436l1.307 4.35633c11.082,0 22.4931,-8.37434 24.399,-16.5546 -1.90644,0.509188 -7.07554,4.91041 -12.2548,6.47948 -5.0996,1.54542 -10.7977,1.75682 -13.4513,5.71883z"/>
   <path id="_104122272" fill="#52df00" d="M3.48565 77.1099c0.111973,0.152998 15.4595,10.2909 17.2477,11.5072 5.37519,3.65602 11.6003,8.96799 20.2223,8.96799l3.48565 0c4.97412,0 5.72463,-1.59369 6.09964,-6.09867 -6.74397,-1.571 -12.3537,-4.02669 -16.8862,-7.94816 -3.60727,-3.12077 -10.3884,-8.60697 -16.6623,-8.60697l-1.307 0c-4.50595,0 -8.1639,1.84273 -12.1998,2.17865z"/>
   <path id="_104124072" fill="#52df00" d="M13.9426 109.348c8.90476,0 14.0324,3.48516 21.7846,3.48516 5.33562,0 9.44435,-3.51171 13.0709,-4.35633l0 -3.48516c-1.01645,0.236978 -1.18585,0.559866 -2.19168,0.539595l-13.0579 -1.41076 -3.04982 0c-6.18748,0 -13.2374,2.34323 -16.5561,5.2275z"/>
   <path id="_104122944" fill="#52df00" d="M178.635 101.942l0.435826 7.40567 4.79264 0c4.46686,0 7.9887,3.04982 14.3774,3.04982l3.0503 0c6.80768,0 16.155,-3.98953 18.7347,-7.84198 -11.1042,0 -16.7776,-5.66333 -26.1419,-5.66333l-4.79264 0c-3.35533,0 -8.21458,1.86348 -10.4565,3.04982z"/>
   <path id="_104123520" fill="#52df00" d="M179.071 115.883l-0.428104 4.74003 3.91327 0.487952 6.97129 0c5.41573,0 15.7858,-2.82877 17.8351,-5.37616l-15.6564 -1.59465c-5.01128,-0.495674 -9.2011,1.4571 -12.6351,1.74282z"/>
   <path id="_104124240" fill="#52df00" d="M0 119.804c7.14167,0.594133 19.4404,7.40567 26.5777,7.40567l7.84246 0c3.56818,0 15.6849,-4.29311 15.6849,-6.09867 0,-2.37895 -0.871653,-2.4137 -0.871653,-4.79216l0 -1.307c-3.12029,0.0695006 -4.58076,1.74234 -8.27781,1.74234l-3.92147 0c-5.90127,0 -10.6746,-3.92099 -18.2989,-3.92099l-0.871653 0c-5.58707,0 -15.7544,4.09233 -17.8636,6.97081z"/>
   <path id="_104123640" fill="#52df00" d="M176.458 129.403l-1.30893 4.34089c10.7755,0.239873 17.2916,15.2477 30.934,15.2477 3.42242,0 6.67543,-1.06471 9.58529,-1.74282 -0.369222,-0.551178 -11.2866,-9.32369 -13.3982,-11.4348 -3.67098,-3.67098 -9.90238,-8.3724 -17.992,-7.452l-7.82026 1.04106z"/>
   <path id="_104123352" fill="#52df00" d="M170.792 142.893c2.75299,4.11067 14.5584,9.58432 22.2204,9.58432l5.22799 0c1.66608,0 0.158789,0.133692 1.30748,-0.435826 -0.38177,-0.520772 -9.28315,-6.32166 -10.8175,-7.48096 -3.11063,-2.35095 -7.85694,-5.15269 -13.1457,-5.15269l-2.17865 0c-1.43055,0 -2.00393,2.33261 -2.61399,3.48516z"/>
   <path id="_104123592" fill="#52df00" d="M125.48 91.9217c0,-0.712863 0.26111,-1.307 0.871653,-1.307 1.27176,0 2.25925,0.585928 3.48565,0.871653l0 1.74234 -2.18589 0.852347c0.00723964,1.81425 0.541043,3.50399 -1.29976,3.50399l-3.04982 0c-1.50198,0 -1.68732,-0.321923 -3.04982,-0.435344 0.10232,-1.23026 -0.0101355,-1.74282 1.307,-1.74282l1.307 0 2.31813 -2.51698 0.29586 0.338815 0 -1.307zm-10.8923 -10.4555c3.21006,-0.266901 8.46459,-6.97033 9.58529,-6.97033l2.61448 0c1.57342,0 1.307,1.09898 1.307,2.61399l1.02224 1.64823c-1.71338,0.511601 -4.78589,2.99142 -4.94371,4.88628l-4.34572 -0.515945c-1.19068,-0.0820493 -4.65943,2.30655 -6.11074,2.69411l0.87117 -4.35633zm31.31 1.24667c1.6434,-4.58318 0.495674,-4.35971 0.495674,-9.52399 -2.40211,-1.2708 -4.94371,-1.81184 -5.22847,-5.22799 1.35333,-0.141414 1.55556,-0.435344 3.04982,-0.435344 11.9218,0 25.2707,25.3281 25.2707,38.3368l0 8.27732c0,9.56646 -3.25446,13.4382 -4.79264,20.0398l-0.871653 0c-0.875514,-3.27908 -1.53432,-7.67595 -5.22847,-8.27732l-0.0849451 0.522702 -10.8184 -1.76116c0.545869,0.730239 1.84032,2.54546 3.06092,2.54546 1.17668,0 1.2013,-0.208019 2.17865,-0.435344l1.27611 0.51691 0.933914 3.39539c-2.94702,4.36164 -7.1296,6.19182 -13.1023,4.80037l0 -3.04934c0,-3.6705 -1.9243,-3.68401 -3.19365,-6.39116 -0.946463,-2.01938 -1.14628,-5.22075 -3.34182,-5.80716l0 2.17817 -1.64871 -1.02175c0.704658,3.57831 2.90213,4.84042 3.83122,7.98822 0.403972,1.36829 0.848486,2.75541 1.38808,4.27573 0.556005,1.56666 1.66753,1.97449 2.09322,3.57011l6.13922 1.11587c-2.97598,4.19899 -10.1722,5.21544 -13.2577,11.3706 -2.22643,4.44176 -0.671839,4.46107 -4.8356,7.36272 -1.26645,0.882754 -4.28587,5.30473 -5.03783,6.72514l-4.78009 0.534768 -8.72618 -0.0989418 0 -3.48516c0,-1.90306 0.87117,-1.5821 0.87117,-3.48516 0,-3.0059 -1.13373,-5.86797 -2.17817,-7.8415 0.299721,-1.28769 1.307,-4.14831 1.307,-5.22799 0,-4.02379 -1.03961,-5.20916 1.307,-8.71315l-3.50543 -4.34185 -7.38299 -1.34175c-0.35426,-1.48268 -2.61834,-6.95681 -2.61834,-7.82123 0,-0.00193057 2.07102,-3.93547 2.17865,-5.22799 3.35099,-0.780433 6.31345,-5.69953 10.0211,-3.92099 1.27273,-2.40549 2.29304,-4.51126 5.66381,-4.79168 0.904955,2.24188 6.09964,1.3596 6.09964,3.48516 0,0.921365 -0.155894,0.574345 -0.435344,1.74234l2.86207 2.83215c0.98797,-0.0704658 0.496639,-0.218155 1.49474,-0.218155 0.280415,0 2.739,1.62409 4.16617,1.93298 2.12411,0.459959 3.36836,0.740374 4.98329,1.11635l0.804566 -2.20954c-1.07436,-0.515945 -2.54739,-0.469611 -2.54739,-2.1468 0,-1.51405 0.772711,-0.611991 1.307,-2.61399l-1.307 0 -0.451271 2.17431 -2.59855 0.00386114 -1.22205 -5.35492 -0.520772 0.127418c0.227807,0.976869 0.435826,1.00148 0.435826,2.17817l0 2.17817 -3.45331 0.966251 1.23219 -2.73514 -1.32148 -4.74921 -2.1217 -0.0164099 0 -0.871653 -4.79892 2.60386c-1.40594,-0.736996 -3.47889,-1.77564 -3.47889,-3.91085 0,-1.13518 2.4721,-4.35633 3.48516,-4.35633 1.31761,0 1.20516,0.512567 1.30748,1.74282 0.643363,-0.171821 1.307,-0.0777055 1.307,-0.871653 0,-1.20275 -1.9687,-2.95426 0.322405,-2.97646 0.825319,-0.00772228 2.44459,0.798291 4.47024,0.798291 0.0989418,0 4.34234,-2.74817 4.79264,-3.04934l-0.51691 -1.27562c1.35912,-0.707554 6.51809,-4.82353 7.05238,-4.82353 0.174234,0 3.51412,2.47113 5.22799,2.61399 -0.287655,-1.23605 -0.435344,-0.744718 -0.435344,-1.74282 0,-0.013514 3.05609,-6.87235 3.42532,-7.90183zm-62.6799 -17.3655c0,-4.64978 6.02097,-5.71111 9.44822,-7.10788 3.0421,-1.23943 9.60942,-2.91227 13.6433,-2.91227 0.033785,0 4.03972,1.74282 5.22847,1.74282l0.435826 0c1.50198,0 1.68684,-0.322405 3.04982,-0.435826l0 1.307c2.52036,0.209467 2.06088,1.74234 3.04982,1.74234l2.61399 -0.144793c1.58983,0.144793 1.03816,-0.245665 3.04982,-0.290551 0.519806,-0.981695 1.168,-2.61399 2.61448,-2.61399l1.307 0 0 1.74282 3.05851 0.382253c-0.236495,1.03044 -0.444514,1.05457 -0.444514,2.23126l0 0.435826c0,1.50198 0.322405,1.68684 0.435826,3.04934l-2.58745 0.947428c-0.813253,-0.602338 -0.792499,-0.947428 -1.76937,-0.947428l-1.307 0c-3.26122,0 -1.65884,2.17817 -3.92147,2.17817l-1.307 0 -1.76213 3.47406 2.2969 2.09081 -1.84176 0.0989418 0 1.74234c-4.3935,-0.365361 1.14676,-2.01262 -3.81626,-3.15455 -2.0411,-0.469611 -2.35144,-1.58162 -4.46203,-2.07295l-4.67488 7.05238 2.48706 1.24232 1.50681 -1.10043 3.73083 -0.223946c-0.271245,3.26218 -2.95377,1.78867 -3.04982,6.09916 -2.57345,0.686801 -1.44069,3.92051 -3.92147,3.92051 -1.78771,0 -1.30989,-2.49864 -1.74234,-4.35633l-0.479264 -0.232634 -1.10573 2.27614c-1.93395,-0.0492296 -2.71969,-2.47596 -3.64347,-4.22168l-6.56201 0.715277c-0.897233,0.311787 -0.612474,0.0955633 -1.28045,-0.279933l-4.38143 1.6767 3.26797 -5.92396 -1.04637 -2.29448c-2.26939,0.194505 -6.11846,1.7462 -6.11846,3.92823l0 2.61351 -3.42049 -1.06133 -0.0651568 2.36833c0,1.96387 -2.17817,1.50005 -2.17817,2.61399 0,1.20323 0.391906,0.908334 0.41266,3.50109 0.0183404,2.24767 1.00872,1.7269 3.0725,1.7269 2.18299,1.46144 2.91516,3.26701 3.65988,6.36075 0.898681,3.73517 1.62892,4.19658 3.31141,6.70873l-0.529942 3.03824c-0.506775,0.908816 -1.21288,1.14193 -1.21288,2.18927l0 0.871653c0,1.29976 1.41221,1.39049 1.68877,3.57252 0.152515,1.20516 -0.38177,2.32634 -0.38177,4.26898 -1.39629,0.0308891 -2.17817,-0.141897 -2.17817,1.307 0,0.0188231 3.92099,7.33183 3.92099,9.14849 0,1.38663 -2.63282,4.35633 -3.92099,4.35633 -1.08353,0 -1.63857,-1.08884 -2.61448,-1.74234 -1.51502,0 -9.71174,0.923778 -10.4618,1.30169 -1.39291,0.702245 -3.63527,1.17524 -4.44273,1.65691 -1.76068,1.04975 -0.984591,2.17768 -2.9586,2.70473 -1.12311,-4.81967 -6.10012,-11.5656 -6.10012,-18.7328 0,-0.97156 3.48565,-4.7854 3.48565,-6.53498 0,-1.94602 -1.307,-3.23612 -1.307,-4.35633 0,-0.536699 4.35682,-7.46166 4.35682,-11.7625l6.02386 -5.31052 2.67577 0.58448c0.757267,-0.563727 1.7573,-1.01403 1.7573,-2.24429 0,-7.13056 0.444031,-10.4917 3.92099,-15.6835l0 -2.61399 2.53629 -1.08402 0.949358 -1.5295zm-28.32 43.5648l0 0.435344c0,31.6725 28.6506,57.9413 61.4327,57.9413l2.17865 0c14.64,0 29.7139,-8.20782 37.1495,-15.5676 7.34534,-7.27053 16.8766,-21.6142 16.8766,-35.8386l0 -7.40615c0,-29.6338 -28.5136,-56.6343 -58.3829,-56.6343l-3.0503 0c-31.742,0 -56.2042,25.0936 -56.2042,57.0701z"/>
   <path id="_104123760" fill="#52df00" d="M153.414 161.691c1.5155,2.27228 8.01911,10.387 10.079,12.4604 2.51071,2.5276 10.5149,7.60066 14.7056,7.94961 -0.0410246,-0.153963 -7.70636,-12.7413 -8.45204,-13.7669 -4.38722,-6.03062 -7.02535,-5.54991 -13.3542,-8.9149l-2.97839 2.2718z"/>
   <path id="_207834384" fill="#52df00" d="M161.643 155.091c2.433,0.649637 7.44621,5.91961 8.98295,8.00801 2.87028,3.90168 3.66471,8.01863 5.99491,11.4314 1.99525,2.9224 5.98332,6.27243 8.99115,8.00029 4.15121,2.38522 8.49693,3.27811 12.1935,5.23378 -0.378875,-1.418 -4.85201,-7.0963 -6.28015,-10.7108 -1.72255,-4.35971 -3.18448,-8.16535 -5.3332,-12.0931 -3.23998,-5.92106 -11.8069,-13.7906 -20.6282,-13.7906 -1.29397,0 -3.61017,2.75637 -3.92099,3.92099z"/>
  </g>
 </g>
</svg>
