<?xml version="1.0" encoding="UTF-8"?>
<!DOCTYPE svg PUBLIC "-//W3C//DTD SVG 1.1//EN" "http://www.w3.org/Graphics/SVG/1.1/DTD/svg11.dtd">
<!-- Creator: CorelDRAW -->
<svg xmlns="http://www.w3.org/2000/svg" xml:space="preserve" width="267px" height="221px" shape-rendering="geometricPrecision" text-rendering="geometricPrecision" image-rendering="optimizeQuality" fill-rule="evenodd" clip-rule="evenodd"
viewBox="0 0 77.6002 64.1098"
 xmlns:xlink="http://www.w3.org/1999/xlink">
 <g id="Layer_x0020_1">
  <metadata id="CorelCorpID_0Corel-Layer"/>
  <polygon fill="#1F1A17" points="2.72201,26.3115 3.62924,23.5895 1.86005,22.5462 "/>
  <path fill="#1F1A17" d="M3.62924 23.5895l-0.907223 2.72201c0.698418,8.39164 6.54977,9.05749 11.7946,12.7022l-6.35091 0c0.524242,6.29982 7.23619,10.8874 14.5166,10.8874 -3.58501,4.89338 -13.6752,7.25847 -22.6823,7.25847 11.3451,9.86082 36.8862,8.74034 48.7614,-0.232463 12.0442,-9.10035 21.1003,-20.6926 21.1003,-41.5032l7.73848 -6.77777 -7.613 1.73662 5.28185 -7.6874 -0.719676 -1.03203 -9.14355 3.99302c-3.12214,-2.2492 -5.90175,-5.65626 -10.9683,-5.65626l-0.907223 0c-9.088,0 -16.331,7.24304 -16.331,16.3314l0 3.62889c-20.1873,0 -26.9613,-14.5667 -33.57,-16.331 -0.474184,2.03491 -0.907223,2.086 -0.907223,4.53646l0 6.35091c0,4.89853 3.46775,7.02944 5.44368,9.98014l-4.53646 -0.907223z"/>
 </g>
</svg>
